<svg width="680" height="441" viewBox="0 0 680 441" fill="none" xmlns="http://www.w3.org/2000/svg">
<g clip-path="url(#clip0_1368_1577)">
<path d="M0 55.125C0 24.6803 25.3705 0 56.6667 0H623.333C654.629 0 680 24.6803 680 55.125V385.875C680 416.32 654.629 441 623.333 441H56.6667C25.3705 441 0 416.32 0 385.875V55.125Z" fill="#311E02"/>
<path d="M406.419 89.9556L264.619 91.3545L273.581 351.046L415.381 349.647L406.419 89.9556Z" fill="#FF5F00"/>
<path d="M272.687 220.822C270.838 168.089 293.861 121.075 330.708 90.44C302.076 68.7027 266.442 55.7493 228.077 56.1251C137.189 57.0155 66.2443 131.562 69.4438 222.813C72.6433 314.063 148.765 387.169 239.653 386.279C278.018 385.903 312.72 372.261 339.808 349.977C300.855 320.543 274.536 273.554 272.687 220.822Z" fill="#EB001B"/>
<path d="M610.556 218.189C613.755 309.439 542.811 383.986 451.923 384.876C413.558 385.252 377.923 372.299 349.291 350.561C386.595 319.921 409.162 272.912 407.313 220.18C405.464 167.447 379.161 120.917 340.191 91.024C367.28 68.7408 401.982 55.0984 440.347 54.7225C531.235 53.8322 607.373 127.396 610.556 218.189Z" fill="#F79E1B"/>
</g>
<defs>
<clipPath id="clip0_1368_1577">
<rect width="680" height="441" fill="white"/>
</clipPath>
</defs>
</svg>
