<svg width="667" height="404" viewBox="0 0 667 404" fill="none" xmlns="http://www.w3.org/2000/svg">
<g clip-path="url(#clip0_1368_1584)">
<path d="M0 50.5C0 22.6096 24.8855 0 55.5833 0H611.417C642.114 0 667 22.6096 667 50.5V353.5C667 381.39 642.114 404 611.417 404H55.5833C24.8855 404 0 381.39 0 353.5V50.5Z" fill="#002433"/>
<path d="M149.669 145.407C142.703 141.056 133.611 138.875 122.396 138.875H78.9755C75.5372 138.875 73.6377 140.437 73.2769 143.559L55.6386 244.153C55.4553 245.141 55.7274 246.044 56.4523 246.866C57.1732 247.689 58.0798 248.098 59.1656 248.098H79.79C83.4074 248.098 85.3957 246.54 85.7607 243.414L90.6447 216.294C90.823 214.98 91.4593 213.911 92.5451 213.088C93.63 212.267 94.9871 211.73 96.6154 211.484C98.2436 211.24 99.779 211.116 101.229 211.116C102.675 211.116 104.393 211.2 106.386 211.363C108.374 211.527 109.642 211.607 110.185 211.607C125.743 211.607 137.955 207.625 146.821 199.65C155.683 191.679 160.119 180.627 160.119 166.487C160.119 156.789 156.633 149.763 149.669 145.405V145.407ZM127.282 175.613C126.375 181.367 124.026 185.145 120.227 186.954C116.427 188.765 111 189.666 103.945 189.666L94.9887 189.912L99.6032 163.53C99.9632 161.723 101.139 160.819 103.13 160.819H108.288C115.521 160.819 120.771 161.766 124.027 163.653C127.282 165.545 128.368 169.533 127.282 175.613V175.613Z" fill="#0041B8"/>
<path d="M607.885 138.875H587.806C585.81 138.875 584.636 139.779 584.277 141.589L566.637 244.157L566.365 244.65C566.365 245.476 566.727 246.253 567.453 246.993C568.172 247.732 569.081 248.102 570.165 248.102H588.079C591.51 248.102 593.411 246.543 593.778 243.418L611.416 142.575V142.33C611.416 140.028 610.236 138.878 607.885 138.878V138.875Z" fill="#009CDE"/>
<path d="M365.278 178.574C365.278 177.754 364.914 176.972 364.195 176.234C363.469 175.495 362.655 175.123 361.752 175.123H340.857C338.863 175.123 337.234 175.949 335.97 177.588L307.205 216.052L295.264 179.069C294.355 176.441 292.368 175.123 289.295 175.123H268.938C268.031 175.123 267.218 175.493 266.498 176.234C265.773 176.972 265.413 177.756 265.413 178.574C265.413 178.905 267.177 183.752 270.704 193.121C274.231 202.494 278.03 212.603 282.101 223.452C286.172 234.299 288.297 240.055 288.478 240.707C273.642 259.119 266.227 268.981 266.227 270.294C266.227 272.433 267.401 273.5 269.755 273.5H290.651C292.64 273.5 294.267 272.68 295.536 271.036L364.739 180.299C365.098 179.974 365.278 179.401 365.278 178.573V178.574Z" fill="#0041B8"/>
<path d="M559.857 175.124H539.232C536.697 175.124 535.164 177.837 534.621 183.262C529.911 176.689 521.324 173.398 508.838 173.398C495.812 173.398 484.73 177.837 475.595 186.713C466.458 195.589 461.892 206.03 461.892 218.028C461.892 227.728 465.012 235.453 471.252 241.204C477.494 246.961 485.86 249.833 496.357 249.833C501.603 249.833 506.94 248.845 512.367 246.875C517.794 244.902 522.042 242.274 525.124 238.985C525.124 239.15 524.939 239.887 524.581 241.201C524.215 242.519 524.037 243.508 524.037 244.16C524.037 246.793 525.21 248.105 527.566 248.105H546.292C549.725 248.105 551.718 246.546 552.258 243.421L563.387 179.068C563.565 178.081 563.295 177.179 562.572 176.356C561.845 175.536 560.942 175.124 559.857 175.124V175.124ZM524.443 223.698C519.83 227.808 514.266 229.861 507.754 229.861C502.505 229.861 498.257 228.549 494.999 225.917C491.74 223.293 490.112 219.676 490.112 215.068C490.112 208.991 492.374 203.85 496.899 199.659C501.415 195.467 507.029 193.372 513.723 193.372C518.785 193.372 522.992 194.728 526.342 197.439C529.686 200.152 531.365 203.891 531.365 208.66C531.363 214.576 529.056 219.591 524.443 223.698Z" fill="#009CDE"/>
<path d="M251.57 175.124H230.945C228.409 175.124 226.874 177.837 226.331 183.262C221.446 176.689 212.852 173.398 200.55 173.398C187.524 173.398 176.441 177.837 167.306 186.713C158.168 195.589 153.602 206.03 153.602 218.028C153.602 227.728 156.723 235.453 162.965 241.204C169.207 246.961 177.572 249.833 188.067 249.833C193.13 249.833 198.38 248.845 203.806 246.875C209.234 244.902 213.576 242.274 216.832 238.985C216.107 240.956 215.747 242.682 215.747 244.16C215.747 246.793 216.922 248.105 219.274 248.105H237.999C241.434 248.105 243.427 246.546 243.97 243.421L255.096 179.068C255.274 178.081 255.004 177.179 254.282 176.356C253.558 175.536 252.655 175.124 251.57 175.124V175.124ZM216.156 223.82C211.541 227.852 205.885 229.861 199.195 229.861C193.945 229.861 189.739 228.549 186.575 225.917C183.408 223.293 181.826 219.676 181.826 215.068C181.826 208.991 184.086 203.85 188.611 199.659C193.131 195.467 198.74 193.371 205.436 193.371C210.499 193.371 214.706 194.728 218.056 197.439C221.4 200.152 223.076 203.891 223.076 208.66C223.075 214.741 220.769 219.797 216.156 223.82V223.82Z" fill="#0041B8"/>
<path d="M457.956 145.407C450.99 141.056 441.901 138.875 430.683 138.875H387.533C383.914 138.875 381.923 140.437 381.563 143.559L363.924 244.153C363.74 245.141 364.012 246.044 364.738 246.866C365.456 247.689 366.365 248.098 367.45 248.098H389.702C391.873 248.098 393.32 247.031 394.045 244.894L398.93 216.294C399.11 214.98 399.743 213.911 400.831 213.088C401.916 212.267 403.272 211.73 404.902 211.484C406.528 211.24 408.064 211.116 409.515 211.116C410.961 211.116 412.678 211.2 414.67 211.363C416.659 211.527 417.93 211.607 418.469 211.607C434.03 211.607 446.239 207.625 455.106 199.65C463.971 191.679 468.403 180.627 468.403 166.487C468.404 156.789 464.919 149.763 457.956 145.405V145.407ZM430.141 185.967C426.16 188.432 420.188 189.664 412.23 189.664L403.545 189.911L408.158 163.528C408.517 161.723 409.693 160.817 411.685 160.817H416.568C420.549 160.817 423.715 160.982 426.07 161.31C428.418 161.64 430.683 162.665 432.854 164.391C435.026 166.117 436.11 168.625 436.11 171.911C436.11 178.817 434.118 183.499 430.141 185.967Z" fill="#009CDE"/>
</g>
<defs>
<clipPath id="clip0_1368_1584">
<rect width="667" height="404" fill="white"/>
</clipPath>
</defs>
</svg>
