<svg width="24" height="25" viewBox="0 0 24 25" fill="none" xmlns="http://www.w3.org/2000/svg">
<g clip-path="url(#clip0_794_1071)">
<path d="M14.8282 9.67164C14.6332 9.47664 14.3161 9.47664 14.1211 9.67164C13.9261 9.86664 13.9261 10.1846 14.1211 10.3787C14.6872 10.9447 15.0001 11.6977 15.0001 12.4997C15.0001 14.1536 13.6541 15.4997 12.0001 15.4997C11.1982 15.4997 10.4452 15.1877 9.87915 14.6207C9.68415 14.4257 9.36713 14.4257 9.17213 14.6207C8.97713 14.8147 8.97713 15.1327 9.17213 15.3277C9.92611 16.0837 10.9311 16.4997 12.0001 16.4997C14.2061 16.4997 16.0001 14.7057 16.0001 12.4997C16.0001 11.4306 15.5842 10.4256 14.8282 9.67164Z" fill="#3C3A36"/>
<path d="M12.697 8.56851C12.47 8.52853 12.238 8.49951 12 8.49951C9.794 8.49951 8 10.2935 8 12.4995C8 12.7375 8.02902 12.9695 8.06998 13.1965C8.11297 13.4385 8.324 13.6095 8.561 13.6095C8.59002 13.6095 8.61899 13.6075 8.64899 13.6015C8.91997 13.5535 9.10199 13.2935 9.05399 13.0225C9.023 12.8525 8.99999 12.6795 8.99999 12.4995C8.99999 10.8455 10.346 9.49949 12 9.49949C12.18 9.49949 12.353 9.52251 12.523 9.55251C12.789 9.60651 13.054 9.41849 13.102 9.14751C13.15 8.87653 12.968 8.61651 12.697 8.56851Z" fill="#3C3A36"/>
<path d="M23.8809 12.1765C23.7678 12.0425 21.0629 8.88552 17.3319 6.95254C17.0898 6.82555 16.7849 6.92155 16.6578 7.16755C16.5309 7.41257 16.6269 7.71453 16.8729 7.84156C19.7469 9.32956 22.0428 11.6516 22.8279 12.4996C21.6359 13.7906 16.9449 18.4996 11.9999 18.4996C10.3219 18.4996 8.6309 18.0946 6.9719 17.2945C6.7259 17.1736 6.42492 17.2786 6.30492 17.5276C6.18393 17.7756 6.28893 18.0745 6.53793 18.1945C8.33291 19.0615 10.1709 19.4995 11.9999 19.4995C18.1609 19.4995 23.6509 13.0955 23.8819 12.8225C24.0399 12.6365 24.0389 12.3635 23.8809 12.1765Z" fill="#3C3A36"/>
<path d="M15.2811 6.07551C14.1431 5.6925 13.0391 5.49951 12 5.49951C5.83904 5.49951 0.349052 11.9035 0.118052 12.1765C-0.0279632 12.3485 -0.0399632 12.5985 0.0900678 12.7855C0.159068 12.8845 1.81206 15.2315 4.67706 17.1345C4.76204 17.1915 4.85706 17.2185 4.95306 17.2185C5.11407 17.2185 5.27307 17.1405 5.36907 16.9935C5.52207 16.7645 5.45907 16.4535 5.22906 16.3015C3.12508 14.9025 1.68508 13.2135 1.14607 12.5265C2.29708 11.2765 7.01907 6.49954 12 6.49954C12.931 6.49954 13.9281 6.67556 14.962 7.02252C15.224 7.11651 15.508 6.97152 15.595 6.70851C15.6831 6.44653 15.543 6.16354 15.2811 6.07551Z" fill="#3C3A36"/>
<path d="M20.853 3.64674C20.658 3.45174 20.3409 3.45174 20.1459 3.64674L3.14601 20.6467C2.95101 20.8417 2.95101 21.1587 3.14601 21.3537C3.24402 21.4507 3.37199 21.4998 3.50001 21.4998C3.62802 21.4998 3.75599 21.4508 3.85302 21.3537L20.853 4.35375C21.048 4.15875 21.048 3.84174 20.853 3.64674Z" fill="#3C3A36"/>
</g>
<defs>
<clipPath id="clip0_794_1071">
<rect width="24" height="24" fill="white" transform="translate(0 0.5)"/>
</clipPath>
</defs>
</svg>
