<svg width="176" height="58" viewBox="0 0 176 58" fill="none" xmlns="http://www.w3.org/2000/svg">
<rect width="176" height="58" fill="white"/>
<path d="M28.5534 40.4336L28.5534 29.0679C28.5534 29.0679 22.0833 30.1858 16.5125 33.9292C10.9417 30.1858 4.47161 29.0679 4.47161 29.0679L4.47161 40.4336C2.57305 41.0095 1.03671 41.704 1.72755e-09 42.5001C3.49735 41.0095 9.58024 40.0101 16.5 40.0101C23.4198 40.0101 29.5026 40.9926 33 42.5001C31.9758 41.704 30.4519 41.0095 28.5534 40.4336Z" fill="#0B7077"/>
<path d="M6.23291 27.8481L6.23291 29.4573C8.53117 30.0502 12.728 31.3714 16.5126 33.9291C12.041 29.1693 6.23291 27.8481 6.23291 27.8481Z" fill="#0B7077"/>
<path d="M26.8046 27.8481C26.8046 27.8481 20.9965 29.1693 16.5249 33.9291C20.3095 31.3883 24.5064 30.0502 26.8046 29.4573L26.8046 27.8481Z" fill="#0B7077"/>
<path d="M16.525 28.0005C16.2876 28.7119 15.9254 29.3386 15.5007 29.8298L16.5125 32.2182L17.5492 29.8298C17.112 29.3386 16.7623 28.7119 16.525 28.0005Z" fill="#0B7077"/>
<path d="M13.4524 26.222C14.1269 26.222 14.6889 25.4767 14.6889 24.5451C14.6889 23.6304 14.1394 22.8682 13.4524 22.8682C12.7779 22.8682 12.2158 23.6135 12.2158 24.5451C12.2158 25.4767 12.7654 26.222 13.4524 26.222ZM13.0402 23.3763C13.3025 23.3763 13.5148 23.6643 13.5148 24.02C13.5148 24.3757 13.3025 24.6636 13.0402 24.6636C12.7779 24.6636 12.5656 24.3757 12.5656 24.02C12.5656 23.6643 12.7779 23.3763 13.0402 23.3763Z" fill="#0B7077"/>
<path d="M18.3486 24.5451C18.3486 25.4598 18.8982 26.222 19.5727 26.222C20.2472 26.222 20.8093 25.4767 20.8093 24.5451C20.8093 23.6304 20.2597 22.8682 19.5727 22.8682C18.9107 22.8851 18.3486 23.6304 18.3486 24.5451ZM19.7226 24.02C19.7226 24.3757 19.5103 24.6636 19.2479 24.6636C18.9856 24.6636 18.7733 24.3757 18.7733 24.02C18.7733 23.6643 18.9856 23.3763 19.2479 23.3763C19.5103 23.3763 19.7226 23.6643 19.7226 24.02Z" fill="#0B7077"/>
<path d="M11.0917 27.8312C11.7037 28.6443 12.5406 29.1355 13.4524 29.1355C14.8014 29.1355 15.9755 28.0514 16.5251 26.4931C17.0621 28.0514 18.2363 29.1355 19.5977 29.1355C20.522 29.1355 21.3464 28.6273 21.9584 27.8312C22.2207 28.3394 22.4456 28.8814 22.6329 29.4404C23.3948 29.0508 24.0943 28.7629 24.7064 28.5257C24.3067 27.4078 23.6821 26.4084 22.8952 25.5615C22.9452 25.2396 22.9827 24.8839 22.9827 24.5452C22.9827 23.8676 22.8702 23.224 22.6704 22.6311C22.4331 21.6826 22.0708 20.8018 21.6087 20.0226L21.5837 15.5L18.8108 17.2616C18.0864 16.889 17.312 16.7026 16.5251 16.7026C15.7381 16.7026 14.9637 16.889 14.2393 17.2616L11.4539 15.5L11.4289 20.0226C10.9793 20.8018 10.617 21.6656 10.3797 22.5972C10.1799 23.1901 10.055 23.8507 10.055 24.5452C10.055 24.9009 10.0799 25.2396 10.1424 25.5615C9.35548 26.4084 8.74345 27.4078 8.34375 28.5257C8.9433 28.7629 9.65526 29.0677 10.4172 29.4404C10.6045 28.8814 10.8294 28.3394 11.0917 27.8312ZM22.2582 24.5452C22.2582 26.5439 21.0591 28.17 19.5852 28.17C18.1114 28.17 16.9123 26.5439 16.9123 24.5452C16.9123 22.5464 18.1114 20.9203 19.5852 20.9203C21.0591 20.9373 22.2582 22.5634 22.2582 24.5452ZM16.5126 17.6681C18.2113 17.6681 19.7601 18.6675 20.8218 20.2767C20.4346 20.0734 20.0099 19.9548 19.5727 19.9548C18.2238 19.9548 17.0497 21.0389 16.5001 22.5972C15.963 21.0389 14.7889 19.9548 13.4274 19.9548C12.9902 19.9548 12.5656 20.0734 12.1908 20.2767C13.2775 18.6675 14.8138 17.6681 16.5126 17.6681ZM13.4524 20.9373C14.9263 20.9373 16.1254 22.5634 16.1254 24.5621C16.1254 26.5608 14.9263 28.1869 13.4524 28.1869C11.9785 28.1869 10.7794 26.5608 10.7794 24.5621C10.7794 22.5634 11.9785 20.9373 13.4524 20.9373Z" fill="#0B7077"/>
<path d="M63.81 29.88C63.81 31.98 63.07 33.78 61.59 35.28C60.11 36.76 58.32 37.5 56.22 37.5C54.12 37.5 52.32 36.76 50.82 35.28C49.34 33.78 48.6 31.98 48.6 29.88C48.6 27.78 49.34 25.99 50.82 24.51C52.32 23.03 54.12 22.29 56.22 22.29C58.32 22.29 60.11 23.03 61.59 24.51C63.07 25.99 63.81 27.78 63.81 29.88ZM58.71 29.88C58.71 29.18 58.47 28.59 57.99 28.11C57.51 27.63 56.92 27.39 56.22 27.39C55.52 27.39 54.92 27.64 54.42 28.14C53.94 28.62 53.7 29.2 53.7 29.88C53.7 30.56 53.95 31.15 54.45 31.65C54.95 32.15 55.54 32.4 56.22 32.4C56.9 32.4 57.48 32.16 57.96 31.68C58.46 31.18 58.71 30.58 58.71 29.88ZM80.3363 34.95C80.3363 35.65 80.0863 36.25 79.5863 36.75C79.0863 37.25 78.4863 37.5 77.7863 37.5C77.0863 37.5 76.4863 37.25 75.9863 36.75C75.4863 36.25 75.2363 35.65 75.2363 34.95V29.88C75.2363 29.18 74.9863 28.59 74.4863 28.11C74.0063 27.61 73.4263 27.36 72.7463 27.36C72.0663 27.36 71.4763 27.61 70.9763 28.11C70.4763 28.59 70.2263 29.18 70.2263 29.88V34.95C70.2263 35.65 69.9763 36.25 69.4763 36.75C68.9763 37.25 68.3763 37.5 67.6763 37.5C66.9763 37.5 66.3763 37.25 65.8763 36.75C65.3763 36.25 65.1263 35.65 65.1263 34.95V29.88C65.1263 27.78 65.8663 25.99 67.3463 24.51C68.8463 23.01 70.6463 22.26 72.7463 22.26C74.8463 22.26 76.6363 23.01 78.1163 24.51C79.5963 25.99 80.3363 27.78 80.3363 29.88V34.95ZM86.8969 34.95C86.8969 35.65 86.6469 36.25 86.1469 36.75C85.6469 37.25 85.0469 37.5 84.3469 37.5C83.6469 37.5 83.0469 37.25 82.5469 36.75C82.0469 36.25 81.7969 35.65 81.7969 34.95V19.68C81.7969 18.98 82.0469 18.38 82.5469 17.88C83.0469 17.38 83.6469 17.13 84.3469 17.13C85.0469 17.13 85.6469 17.38 86.1469 17.88C86.6469 18.38 86.8969 18.98 86.8969 19.68V34.95ZM103.509 34.95C103.509 35.65 103.259 36.25 102.759 36.75C102.259 37.25 101.659 37.5 100.959 37.5H95.9487C93.8487 37.5 92.0487 36.76 90.5487 35.28C89.0487 33.78 88.2987 31.98 88.2987 29.88C88.2987 27.78 89.0387 25.99 90.5187 24.51C92.0187 23.01 93.8187 22.26 95.9187 22.26C97.6987 22.26 99.2787 22.81 100.659 23.91C102.039 25.01 102.929 26.43 103.329 28.17C103.389 28.29 103.419 28.48 103.419 28.74C103.419 29.44 103.169 30.04 102.669 30.54C102.169 31.04 101.569 31.29 100.869 31.29C99.6087 31.29 98.7787 30.64 98.3787 29.34C97.9987 28.04 97.1887 27.39 95.9487 27.39C95.2487 27.39 94.6487 27.64 94.1487 28.14C93.6487 28.62 93.3987 29.2 93.3987 29.88C93.3987 30.56 93.6487 31.15 94.1487 31.65C94.6487 32.15 95.2387 32.4 95.9187 32.4H100.929C101.629 32.4 102.229 32.65 102.729 33.15C103.249 33.65 103.509 34.25 103.509 34.95ZM120.182 34.95C120.182 35.65 119.932 36.25 119.432 36.75C118.932 37.25 118.332 37.5 117.632 37.5H112.562C110.482 37.5 108.692 36.76 107.192 35.28C105.692 33.78 104.942 31.98 104.942 29.88C104.942 27.78 105.682 25.99 107.162 24.51C108.662 23.03 110.452 22.29 112.532 22.29C114.632 22.29 116.432 23.03 117.932 24.51C119.432 25.99 120.182 27.78 120.182 29.88V34.95ZM115.082 29.88C115.082 29.2 114.832 28.62 114.332 28.14C113.852 27.64 113.262 27.39 112.562 27.39C111.862 27.39 111.262 27.64 110.762 28.14C110.282 28.62 110.042 29.2 110.042 29.88C110.042 30.58 110.282 31.18 110.762 31.68C111.262 32.16 111.852 32.4 112.532 32.4H115.052L115.082 29.88ZM135.259 24.81C135.259 25.51 135.009 26.11 134.509 26.61C134.009 27.11 133.409 27.36 132.709 27.36H128.959C128.279 27.36 127.689 27.61 127.189 28.11C126.689 28.59 126.439 29.18 126.439 29.88V34.95C126.439 35.65 126.189 36.25 125.689 36.75C125.189 37.25 124.589 37.5 123.889 37.5C123.189 37.5 122.579 37.25 122.059 36.75C121.559 36.25 121.309 35.65 121.309 34.95V29.88C121.309 27.78 122.049 25.99 123.529 24.51C125.029 23.01 126.829 22.26 128.929 22.26H132.679C133.379 22.26 133.979 22.51 134.479 23.01C134.999 23.51 135.259 24.11 135.259 24.81ZM151.557 34.95C151.557 35.65 151.307 36.25 150.807 36.75C150.307 37.25 149.707 37.5 149.007 37.5C148.307 37.5 147.707 37.25 147.207 36.75C146.707 36.25 146.457 35.65 146.457 34.95V29.88C146.457 29.18 146.207 28.59 145.707 28.11C145.227 27.61 144.647 27.36 143.967 27.36C143.287 27.36 142.697 27.61 142.197 28.11C141.697 28.59 141.447 29.18 141.447 29.88V34.95C141.447 35.65 141.197 36.25 140.697 36.75C140.197 37.25 139.597 37.5 138.897 37.5C138.197 37.5 137.597 37.25 137.097 36.75C136.597 36.25 136.347 35.65 136.347 34.95V29.88C136.347 27.78 137.087 25.99 138.567 24.51C140.067 23.01 141.867 22.26 143.967 22.26C146.067 22.26 147.857 23.01 149.337 24.51C150.817 25.99 151.557 27.78 151.557 29.88V34.95Z" fill="#0B7077"/>
</svg>
